{
	"asset":{
		"generator":"Khronos glTF Blender I/O v4.2.57",
		"version":"2.0"
	},
	"scene":0,
	"scenes":[
		{
			"name":"Scene",
			"nodes":[
				0,
				1,
				2
			]
		}
	],
	"nodes":[
		{
			"mesh":0,
			"name":"Cube",
			"scale":[
				0.061583876609802246,
				1.6714365482330322,
				3.0092532634735107
			],
			"translation":[
				0,
				1.841575264930725,
				0
			]
		},
		{
			"mesh":1,
			"name":"NamePlate",
			"rotation":[
				0.5,
				0.5,
				-0.5,
				0.4999999701976776
			],
			"scale":[
				0.7603451013565063,
				0.7603451013565063,
				0.7603451013565063
			],
			"translation":[
				0.07109273970127106,
				2.3359663486480713,
				2.5461912155151367
			]
		},
		{
			"mesh":2,
			"name":"SpecPlate",
			"rotation":[
				0.5,
				0.5,
				-0.5,
				0.5
			],
			"scale":[
				0.5969268679618835,
				0.5969268679618835,
				0.5969268679618835
			],
			"translation":[
				0.07109273970127106,
				1.5589715242385864,
				1.4510961771011353
			]
		}
	],
	"materials":[
		{
			"doubleSided":true,
			"name":"CardMat",
			"pbrMetallicRoughness":{
				"baseColorFactor":[
					0.36949512362480164,
					0.8000315427780151,
					0.6428149342536926,
					1
				],
				"metallicFactor":0,
				"roughnessFactor":0.5
			}
		},
		{
			"doubleSided":true,
			"name":"NameMat",
			"pbrMetallicRoughness":{
				"baseColorFactor":[
					0.0003497946308925748,
					0.0003497946308925748,
					0.0003497946308925748,
					1
				],
				"metallicFactor":0,
				"roughnessFactor":0.5
			}
		},
		{
			"doubleSided":true,
			"name":"NameMat.001",
			"pbrMetallicRoughness":{
				"baseColorFactor":[
					0.0003497946308925748,
					0.0003497946308925748,
					0.0003497946308925748,
					1
				],
				"metallicFactor":0,
				"roughnessFactor":0.5
			}
		}
	],
	"meshes":[
		{
			"name":"Cube",
			"primitives":[
				{
					"attributes":{
						"POSITION":0,
						"NORMAL":1,
						"TEXCOORD_0":2
					},
					"indices":3,
					"material":0
				}
			]
		},
		{
			"name":"NamePlateText",
			"primitives":[
				{
					"attributes":{
						"POSITION":4,
						"NORMAL":5,
						"TEXCOORD_0":6
					},
					"indices":7,
					"material":1
				}
			]
		},
		{
			"name":"SpecPlateText",
			"primitives":[
				{
					"attributes":{
						"POSITION":8,
						"NORMAL":9,
						"TEXCOORD_0":10
					},
					"indices":11,
					"material":2
				}
			]
		}
	],
	"accessors":[
		{
			"bufferView":0,
			"componentType":5126,
			"count":24,
			"max":[
				1,
				1,
				1
			],
			"min":[
				-1,
				-1,
				-1
			],
			"type":"VEC3"
		},
		{
			"bufferView":1,
			"componentType":5126,
			"count":24,
			"type":"VEC3"
		},
		{
			"bufferView":2,
			"componentType":5126,
			"count":24,
			"type":"VEC2"
		},
		{
			"bufferView":3,
			"componentType":5123,
			"count":36,
			"type":"SCALAR"
		},
		{
			"bufferView":4,
			"componentType":5126,
			"count":4321,
			"max":[
				6.9210004806518555,
				0,
				0.23000000417232513
			],
			"min":[
				0.07499996572732925,
				0,
				-0.6820000410079956
			],
			"type":"VEC3"
		},
		{
			"bufferView":5,
			"componentType":5126,
			"count":4321,
			"type":"VEC3"
		},
		{
			"bufferView":6,
			"componentType":5126,
			"count":4321,
			"type":"VEC2"
		},
		{
			"bufferView":7,
			"componentType":5123,
			"count":12903,
			"type":"SCALAR"
		},
		{
			"bufferView":8,
			"componentType":5126,
			"count":3913,
			"max":[
				5.091000080108643,
				0,
				0.23000000417232513
			],
			"min":[
				0.0020000000949949026,
				0,
				-0.6820000410079956
			],
			"type":"VEC3"
		},
		{
			"bufferView":9,
			"componentType":5126,
			"count":3913,
			"type":"VEC3"
		},
		{
			"bufferView":10,
			"componentType":5126,
			"count":3913,
			"type":"VEC2"
		},
		{
			"bufferView":11,
			"componentType":5123,
			"count":11703,
			"type":"SCALAR"
		}
	],
	"bufferViews":[
		{
			"buffer":0,
			"byteLength":288,
			"byteOffset":0,
			"target":34962
		},
		{
			"buffer":0,
			"byteLength":288,
			"byteOffset":288,
			"target":34962
		},
		{
			"buffer":0,
			"byteLength":192,
			"byteOffset":576,
			"target":34962
		},
		{
			"buffer":0,
			"byteLength":72,
			"byteOffset":768,
			"target":34963
		},
		{
			"buffer":0,
			"byteLength":51852,
			"byteOffset":840,
			"target":34962
		},
		{
			"buffer":0,
			"byteLength":51852,
			"byteOffset":52692,
			"target":34962
		},
		{
			"buffer":0,
			"byteLength":34568,
			"byteOffset":104544,
			"target":34962
		},
		{
			"buffer":0,
			"byteLength":25806,
			"byteOffset":139112,
			"target":34963
		},
		{
			"buffer":0,
			"byteLength":46956,
			"byteOffset":164920,
			"target":34962
		},
		{
			"buffer":0,
			"byteLength":46956,
			"byteOffset":211876,
			"target":34962
		},
		{
			"buffer":0,
			"byteLength":31304,
			"byteOffset":258832,
			"target":34962
		},
		{
			"buffer":0,
			"byteLength":23406,
			"byteOffset":290136,
			"target":34963
		}
	],
	"buffers":[
		{
			"byteLength":313544,
			"uri":"Card.bin"
		}
	]
}
